<svg width="97" height="96" viewBox="0 0 97 96" fill="none" xmlns="http://www.w3.org/2000/svg">
<path fill-rule="evenodd" clip-rule="evenodd" d="M26.0372 36.4C16.4372 37.6 8.83716 46 8.83716 56C8.83716 67.2 17.6372 76 28.8372 76H72.8372C81.6372 76 88.8372 68.8 88.8372 60C88.8372 51.2 81.6372 44 72.8372 44C72.8372 30.8 62.0372 20 48.8372 20C38.4372 20 29.2372 26.8 26.0372 36.4Z" stroke="white" stroke-width="2" stroke-linecap="round" stroke-linejoin="round"/>
<path d="M48.8372 42.4V45.6" stroke="white" stroke-width="2" stroke-linecap="round" stroke-linejoin="round"/>
<path d="M48.8372 58.4V61.6" stroke="white" stroke-width="2" stroke-linecap="round" stroke-linejoin="round"/>
<path d="M40.4372 47.2L43.2372 48.8" stroke="white" stroke-width="2" stroke-linecap="round" stroke-linejoin="round"/>
<path d="M54.4372 55.2L57.2372 56.8" stroke="white" stroke-width="2" stroke-linecap="round" stroke-linejoin="round"/>
<path d="M40.4372 56.8L43.2372 55.2" stroke="white" stroke-width="2" stroke-linecap="round" stroke-linejoin="round"/>
<path d="M54.4372 48.8L57.2372 47.2" stroke="white" stroke-width="2" stroke-linecap="round" stroke-linejoin="round"/>
<circle cx="48.8373" cy="52.0001" r="6.4" stroke="white" stroke-width="2" stroke-linecap="round" stroke-linejoin="round"/>
</svg>
