<svg width="64" height="64" viewBox="0 0 64 64" fill="none" xmlns="http://www.w3.org/2000/svg">
<g id="Group">
<g id="Group_2">
<path id="Path" d="M42.6667 5.3335V16.0002" stroke="#8160D1" stroke-width="2" stroke-linecap="round" stroke-linejoin="round"/>
<path id="Path_2" d="M21.3333 5.3335V16.0002" stroke="#8160D1" stroke-width="2" stroke-linecap="round" stroke-linejoin="round"/>
<path id="Path_3" d="M8 23.9998H56" stroke="#8160D1" stroke-width="2" stroke-linecap="round" stroke-linejoin="round"/>
<path id="Path_4" fill-rule="evenodd" clip-rule="evenodd" d="M50.6667 10.6665H13.3333C10.4 10.6665 8 13.0665 8 15.9998V50.6665C8 53.5998 10.4 55.9998 13.3333 55.9998H50.6667C53.6 55.9998 56 53.5998 56 50.6665V15.9998C56 13.0665 53.6 10.6665 50.6667 10.6665Z" stroke="#8160D1" stroke-width="2" stroke-linecap="round" stroke-linejoin="round"/>
<path id="Shape_3077_65_" d="M32.0002 34.133C31.7335 34.133 31.4668 34.3996 31.4668 34.933C31.4668 35.4663 31.7335 35.4663 32.2668 35.4663C32.5335 35.4663 32.8002 35.1996 32.8002 34.933C32.8002 34.6663 32.2668 34.133 32.0002 34.133" stroke="#8160D1" stroke-width="2" stroke-linecap="round" stroke-linejoin="round"/>
<path id="Shape_3077_64_" d="M45.3334 34.133C45.0668 34.133 44.8001 34.3996 44.8001 34.933C44.8001 35.4663 45.0668 35.4663 45.6001 35.4663C45.8668 35.4663 46.1334 35.1996 46.1334 34.933C46.1334 34.6663 45.6001 34.133 45.3334 34.133" stroke="#8160D1" stroke-width="2" stroke-linecap="round" stroke-linejoin="round"/>
<path id="Shape_3077_63_" d="M18.6668 44.7995C18.4001 44.7995 18.1335 45.0661 18.1335 45.5995C18.1335 46.1328 18.4001 46.1328 18.9335 46.1328C19.2001 46.1328 19.4668 45.8661 19.4668 45.5995C19.4668 45.3328 18.9335 44.7995 18.6668 44.7995" stroke="#8160D1" stroke-width="2" stroke-linecap="round" stroke-linejoin="round"/>
<path id="Shape_3077_62_" d="M32.0002 44.7995C31.7335 44.7995 31.4668 45.0661 31.4668 45.5995C31.4668 46.1328 31.7335 46.1328 32.2668 46.1328C32.5335 46.1328 32.8002 45.8661 32.8002 45.5995C32.8002 45.3328 32.2668 44.7995 32.0002 44.7995" stroke="#8160D1" stroke-width="2" stroke-linecap="round" stroke-linejoin="round"/>
</g>
</g>
</svg>
