<svg width="64" height="64" viewBox="0 0 64 64" fill="none" xmlns="http://www.w3.org/2000/svg">
<path fill-rule="evenodd" clip-rule="evenodd" d="M40.8 57.3333C44 56.2667 46.9334 54.4 49.3334 52.2667C50.6667 51.2 50.4 48.8 48.8 48L41.3334 43.7333C39.4667 42.6667 37.3334 44 37.3334 46.1333V54.9333C37.3334 56.5333 39.2 57.8667 40.8 57.3333Z" stroke="#8160D1" stroke-width="2" stroke-linecap="round" stroke-linejoin="round"/>
<path fill-rule="evenodd" clip-rule="evenodd" d="M23.2001 6.93341C20.0001 8.00007 17.0668 9.86674 14.6668 12.0001C13.3335 13.0667 13.6001 15.4667 15.2001 16.2667L22.6668 20.5334C24.5335 21.6001 26.6668 20.2667 26.6668 18.1334V9.33341C26.6668 7.7334 24.8001 6.40007 23.2001 6.93341Z" stroke="#8160D1" stroke-width="2" stroke-linecap="round" stroke-linejoin="round"/>
<path fill-rule="evenodd" clip-rule="evenodd" d="M58.1336 37.0671C58.667 33.8671 58.667 30.4005 58.1336 27.2005C57.867 25.3338 55.7336 24.5338 54.1336 25.3338L46.667 29.6005C44.8003 30.6671 44.8003 33.0671 46.667 34.1338L54.1336 38.4005C55.7336 39.7338 57.867 38.9338 58.1336 37.0671Z" stroke="#8160D1" stroke-width="2" stroke-linecap="round" stroke-linejoin="round"/>
<path fill-rule="evenodd" clip-rule="evenodd" d="M5.8668 27.2C5.33346 30.4 5.33346 33.8667 5.8668 37.0667C6.13346 38.9334 8.2668 39.7334 9.8668 38.9334L17.3335 34.6667C19.2001 33.6 19.2001 31.2 17.3335 30.1334L9.8668 25.8667C8.00013 24.5334 6.13346 25.3334 5.8668 27.2Z" stroke="#8160D1" stroke-width="2" stroke-linecap="round" stroke-linejoin="round"/>
<path fill-rule="evenodd" clip-rule="evenodd" d="M49.3334 11.7334C46.6667 9.60011 43.7334 8.00011 40.8 6.93345C39.2 6.40011 37.3334 7.73345 37.3334 9.60011V18.4001C37.3334 20.5334 39.4667 21.8668 41.3334 20.8001L48.8 16.5334C50.4 15.2001 50.6667 13.0668 49.3334 11.7334Z" stroke="#8160D1" stroke-width="2" stroke-linecap="round" stroke-linejoin="round"/>
<path fill-rule="evenodd" clip-rule="evenodd" d="M14.6664 52.2663C17.3331 54.3996 20.2664 55.9996 23.1998 57.0663C24.7998 57.5996 26.6664 56.2663 26.6664 54.3996V45.5996C26.6664 43.4663 24.5331 42.133 22.6664 43.1996L15.1998 47.4663C13.3331 48.7996 13.0664 51.1996 14.6664 52.2663Z" stroke="#8160D1" stroke-width="2" stroke-linecap="round" stroke-linejoin="round"/>
</svg>
