<svg width="162" height="24" viewBox="0 0 162 24" fill="none" xmlns="http://www.w3.org/2000/svg">
<path d="M18.5181 0.0229492V23.4853H15.0524L14.4748 22.0528C12.9637 23.3278 11.0454 24.0185 9.06841 23.9994C3.8353 23.9994 0 20.0832 0 14.8617C0 9.64009 3.8353 5.75279 9.06841 5.75279C10.7555 5.73629 12.4075 6.23392 13.8048 7.17948V0.0229492H18.5181ZM14.2033 14.8617C14.1976 13.933 13.917 13.0268 13.397 12.2574C12.8769 11.4881 12.1406 10.8899 11.281 10.5385C10.4214 10.187 9.47691 10.098 8.56678 10.2827C7.65665 10.4674 6.82159 10.9174 6.16693 11.5761C5.51227 12.2348 5.06733 13.0726 4.88824 13.9838C4.70916 14.8951 4.80394 15.839 5.16064 16.6964C5.51733 17.5539 6.11996 18.2865 6.89251 18.8018C7.66507 19.3172 8.57294 19.5922 9.50162 19.5922C10.1259 19.6083 10.7468 19.4967 11.3265 19.2642C11.9061 19.0318 12.4321 18.6835 12.8723 18.2405C13.3125 17.7976 13.6576 17.2695 13.8865 16.6885C14.1154 16.1074 14.2232 15.4858 14.2033 14.8617Z" fill="black"/>
<path d="M40.5653 6.2151V23.4855H36.909L36.5047 21.9433C34.9566 23.2881 32.9698 24.0195 30.9193 23.9996C25.7208 23.9996 21.8682 20.0834 21.8682 14.8619C21.8341 13.6624 22.0446 12.4685 22.487 11.3531C22.9293 10.2376 23.5942 9.22393 24.4411 8.3738C25.288 7.52368 26.2991 6.85493 27.4129 6.40832C28.5266 5.96172 29.7197 5.74661 30.9193 5.77611C33.004 5.75274 35.0232 6.50401 36.5856 7.88437L37.0823 6.23242L40.5653 6.2151ZM35.9907 14.8214C35.985 13.8939 35.7047 12.9888 35.1852 12.2204C34.6658 11.452 33.9304 10.8546 33.0719 10.5036C32.2133 10.1526 31.27 10.0637 30.361 10.2481C29.452 10.4326 28.618 10.8821 27.9641 11.54C27.3103 12.1978 26.8659 13.0346 26.687 13.9447C26.5081 14.8549 26.6028 15.7976 26.9591 16.654C27.3153 17.5104 27.9172 18.2421 28.6888 18.7568C29.4604 19.2715 30.3672 19.5462 31.2947 19.5462C31.9182 19.5623 32.5384 19.4508 33.1173 19.2187C33.6962 18.9866 34.2216 18.6386 34.6613 18.1962C35.101 17.7539 35.4457 17.2263 35.6743 16.646C35.9029 16.0657 36.0105 15.4448 35.9907 14.8214Z" fill="black"/>
<path d="M55.5945 19.3326V23.4856H52.2791C48.4842 23.4856 46.1507 21.1752 46.1507 17.3284V9.98698H43.0316V8.98196L49.8474 1.73877H50.7369V6.23833H55.4964V9.98698H50.8177V16.7103C50.8177 18.3738 51.7766 19.3326 53.4747 19.3326H55.5945Z" fill="black"/>
<path d="M76.1747 6.2151V23.4855H72.5242L72.1199 21.9433C70.5703 23.2894 68.5812 24.021 66.5287 23.9996C61.3302 23.9996 57.4833 20.0834 57.4833 14.8619C57.4485 13.6627 57.6583 12.4689 58.1 11.3535C58.5417 10.2381 59.206 9.2243 60.0524 8.37409C60.8988 7.52388 61.9096 6.85505 63.0231 6.40838C64.1365 5.96171 65.3293 5.74658 66.5287 5.77611C68.6152 5.75241 70.6363 6.50363 72.2007 7.88437L72.6975 6.23243L76.1747 6.2151ZM71.6058 14.8214C71.6012 13.8923 71.3215 12.9853 70.8018 12.215C70.2822 11.4448 69.5459 10.8457 68.6861 10.4936C67.8262 10.1414 66.8813 10.0519 65.9706 10.2364C65.06 10.4209 64.2244 10.8711 63.5694 11.5301C62.9144 12.1892 62.4693 13.0275 62.2904 13.9393C62.1115 14.8511 62.2068 15.7954 62.5642 16.6531C62.9216 17.5108 63.5251 18.2433 64.2986 18.7583C65.072 19.2732 65.9807 19.5474 66.9099 19.5462C67.5332 19.5615 68.153 19.4494 68.7315 19.217C69.3101 18.9846 69.8351 18.6366 70.2746 18.1944C70.7141 17.7522 71.0588 17.225 71.2877 16.6451C71.5166 16.0651 71.6248 15.4446 71.6058 14.8214Z" fill="black"/>
<path d="M127.333 14.8617C127.333 20.0601 123.521 23.9763 118.265 23.9763C116.292 23.9978 114.377 23.3136 112.864 22.0471L112.315 23.4853H108.85V0.0229492H113.511V7.17372C114.91 6.23187 116.561 5.73641 118.247 5.75279C123.498 5.75279 127.333 9.62276 127.333 14.8617ZM117.884 19.5634C118.817 19.5656 119.73 19.2909 120.507 18.7739C121.283 18.2568 121.889 17.5208 122.247 16.6591C122.606 15.7974 122.7 14.8488 122.518 13.9334C122.337 13.0181 121.888 12.1772 121.228 11.5173C120.568 10.8575 119.727 10.4083 118.812 10.2268C117.896 10.0453 116.948 10.1397 116.086 10.4978C115.224 10.856 114.488 11.4619 113.971 12.2388C113.454 13.0156 113.18 13.9285 113.182 14.8617C113.164 15.4839 113.274 16.1031 113.504 16.6815C113.734 17.2598 114.08 17.7852 114.52 18.2253C114.96 18.6654 115.485 19.0111 116.064 19.2412C116.642 19.4713 117.261 19.5809 117.884 19.5634Z" fill="black"/>
<path d="M147.399 14.8216C147.399 15.2774 147.37 15.7326 147.313 16.1847H134.265C134.669 18.5414 136.217 19.8352 138.475 19.8352C139.209 19.8614 139.936 19.6897 140.58 19.3381C141.225 18.9864 141.762 18.4678 142.137 17.8367H147.041C146.465 19.6466 145.322 21.2229 143.78 22.3319C142.238 23.441 140.38 24.0238 138.481 23.994C133.387 23.994 129.534 20.0489 129.534 14.8794C129.534 9.70979 133.358 5.77051 138.481 5.77051C143.778 5.77051 147.411 9.84841 147.411 14.8216H147.399ZM134.38 13.0021H142.738C142.08 10.8939 140.566 9.75022 138.47 9.75022C137.516 9.72014 136.582 10.0283 135.834 10.6203C135.085 11.2122 134.57 12.0498 134.38 12.9848V13.0021Z" fill="black"/>
<path d="M161.013 19.3326V23.4856H157.698C153.903 23.4856 151.575 21.1752 151.575 17.3284V9.98698H148.456V8.98196L155.266 1.73877H156.162V6.23833H160.921V9.98698H156.214V16.7103C156.214 18.3738 157.172 19.3326 158.871 19.3326H161.013Z" fill="black"/>
<path d="M102.941 23.5143H81.1941V20.5108L100.382 0.0115458L102.941 0V23.5143Z" fill="#8160D1"/>
</svg>
