<svg width="162" height="24" viewBox="0 0 162 24" fill="none" xmlns="http://www.w3.org/2000/svg">
<path d="M18.5181 0.0231018V23.4855H15.0524L14.4748 22.053C12.9637 23.328 11.0454 24.0187 9.06841 23.9995C3.8353 23.9995 0 20.0834 0 14.8618C0 9.64025 3.8353 5.75294 9.06841 5.75294C10.7555 5.73644 12.4075 6.23408 13.8048 7.17963V0.0231018H18.5181ZM14.2033 14.8618C14.1976 13.9331 13.917 13.027 13.397 12.2576C12.8769 11.4882 12.1406 10.8901 11.281 10.5386C10.4214 10.1872 9.47691 10.0982 8.56678 10.2829C7.65665 10.4675 6.82159 10.9176 6.16693 11.5763C5.51227 12.2349 5.06733 13.0727 4.88824 13.984C4.70916 14.8952 4.80394 15.8391 5.16064 16.6966C5.51733 17.554 6.11996 18.2866 6.89251 18.802C7.66507 19.3173 8.57294 19.5924 9.50162 19.5924C10.1259 19.6084 10.7468 19.4968 11.3265 19.2644C11.9061 19.032 12.4321 18.6836 12.8723 18.2407C13.3125 17.7978 13.6576 17.2696 13.8865 16.6886C14.1154 16.1076 14.2232 15.486 14.2033 14.8618Z" fill="white"/>
<path d="M40.5653 6.21503V23.4855H36.909L36.5047 21.9432C34.9566 23.288 32.9698 24.0195 30.9193 23.9995C25.7208 23.9995 21.8682 20.0834 21.8682 14.8618C21.8341 13.6623 22.0446 12.4685 22.487 11.353C22.9293 10.2376 23.5942 9.22386 24.4411 8.37374C25.288 7.52362 26.2991 6.85487 27.4129 6.40826C28.5266 5.96166 29.7197 5.74655 30.9193 5.77605C33.004 5.75268 35.0232 6.50395 36.5856 7.88431L37.0823 6.23236L40.5653 6.21503ZM35.9907 14.8214C35.985 13.8938 35.7047 12.9888 35.1852 12.2204C34.6658 11.4519 33.9304 10.8545 33.0719 10.5035C32.2133 10.1525 31.27 10.0636 30.361 10.2481C29.452 10.4325 28.618 10.882 27.9641 11.5399C27.3103 12.1978 26.8659 13.0346 26.687 13.9447C26.5081 14.8548 26.6028 15.7975 26.9591 16.6539C27.3153 17.5103 27.9172 18.242 28.6888 18.7567C29.4604 19.2715 30.3672 19.5462 31.2947 19.5462C31.9182 19.5622 32.5384 19.4508 33.1173 19.2186C33.6962 18.9865 34.2216 18.6386 34.6613 18.1962C35.101 17.7538 35.4457 17.2263 35.6743 16.646C35.9029 16.0656 36.0105 15.4448 35.9907 14.8214Z" fill="white"/>
<path d="M55.5945 19.3325V23.4855H52.2791C48.4842 23.4855 46.1507 21.175 46.1507 17.3282V9.9868H43.0316V8.98177L49.8474 1.73859H50.7369V6.23814H55.4964V9.9868H50.8177V16.7101C50.8177 18.3736 51.7766 19.3325 53.4747 19.3325H55.5945Z" fill="white"/>
<path d="M76.1747 6.21504V23.4855H72.5242L72.1199 21.9432C70.5703 23.2893 68.5812 24.0209 66.5287 23.9995C61.3302 23.9995 57.4833 20.0834 57.4833 14.8618C57.4485 13.6626 57.6583 12.4689 58.1 11.3534C58.5417 10.238 59.206 9.22424 60.0524 8.37403C60.8988 7.52382 61.9096 6.85499 63.0231 6.40832C64.1365 5.96165 65.3293 5.74652 66.5287 5.77605C68.6152 5.75235 70.6363 6.50357 72.2007 7.88431L72.6975 6.23237L76.1747 6.21504ZM71.6058 14.8214C71.6012 13.8922 71.3215 12.9852 70.8018 12.215C70.2822 11.4447 69.5459 10.8457 68.6861 10.4935C67.8262 10.1414 66.8813 10.0519 65.9706 10.2364C65.06 10.4209 64.2244 10.871 63.5694 11.5301C62.9144 12.1891 62.4693 13.0274 62.2904 13.9392C62.1115 14.851 62.2068 15.7954 62.5642 16.653C62.9216 17.5107 63.5251 18.2433 64.2986 18.7582C65.072 19.2731 65.9807 19.5473 66.9099 19.5462C67.5332 19.5614 68.153 19.4494 68.7315 19.2169C69.3101 18.9845 69.8351 18.6365 70.2746 18.1943C70.7141 17.7521 71.0588 17.2249 71.2877 16.645C71.5166 16.0651 71.6248 15.4445 71.6058 14.8214Z" fill="white"/>
<path d="M127.333 14.8618C127.333 20.0603 123.521 23.9764 118.265 23.9764C116.292 23.998 114.377 23.3138 112.864 22.0472L112.315 23.4855H108.85V0.0231018H113.511V7.17387C114.91 6.23202 116.561 5.73656 118.247 5.75294C123.498 5.75294 127.333 9.62292 127.333 14.8618ZM117.884 19.5635C118.817 19.5658 119.73 19.291 120.507 18.774C121.283 18.257 121.889 17.521 122.247 16.6593C122.606 15.7976 122.7 14.8489 122.518 13.9336C122.337 13.0182 121.888 12.1773 121.228 11.5175C120.568 10.8576 119.727 10.4085 118.812 10.227C117.896 10.0455 116.948 10.1398 116.086 10.498C115.224 10.8561 114.488 11.462 113.971 12.2389C113.454 13.0158 113.18 13.9286 113.182 14.8618C113.164 15.484 113.274 16.1032 113.504 16.6816C113.734 17.26 114.08 17.7853 114.52 18.2255C114.96 18.6656 115.485 19.0113 116.064 19.2414C116.642 19.4714 117.261 19.581 117.884 19.5635Z" fill="white"/>
<path d="M147.399 14.8214C147.399 15.2771 147.37 15.7324 147.313 16.1845H134.265C134.669 18.5412 136.217 19.835 138.475 19.835C139.209 19.8612 139.936 19.6895 140.58 19.3379C141.225 18.9862 141.762 18.4676 142.137 17.8365H147.041C146.465 19.6464 145.322 21.2227 143.78 22.3317C142.238 23.4408 140.38 24.0236 138.481 23.9938C133.387 23.9938 129.534 20.0487 129.534 14.8792C129.534 9.70958 133.358 5.77029 138.481 5.77029C143.778 5.77029 147.411 9.8482 147.411 14.8214H147.399ZM134.38 13.0019H142.738C142.08 10.8937 140.566 9.75001 138.47 9.75001C137.516 9.71992 136.582 10.0281 135.834 10.6201C135.085 11.212 134.57 12.0496 134.38 12.9846V13.0019Z" fill="white"/>
<path d="M161.013 19.3325V23.4855H157.698C153.903 23.4855 151.575 21.175 151.575 17.3282V9.9868H148.456V8.98177L155.266 1.73859H156.162V6.23814H160.921V9.9868H156.214V16.7101C156.214 18.3736 157.172 19.3325 158.871 19.3325H161.013Z" fill="white"/>
<path d="M102.941 23.5143H81.1941V20.5108L100.382 0.0115458L102.941 0V23.5143Z" fill="#8160D1"/>
</svg>
