<svg width="89" height="88" viewBox="0 0 89 88" fill="none" xmlns="http://www.w3.org/2000/svg">
<path fill-rule="evenodd" clip-rule="evenodd" d="M20.2711 81.2563H12.4237C10.0695 81.2563 8.5 79.6869 8.5 77.3326V53.7904C8.5 51.4362 10.0695 49.8667 12.4237 49.8667H20.2711C22.6253 49.8667 24.1948 51.4362 24.1948 53.7904V77.3326C24.1948 79.6869 22.6253 81.2563 20.2711 81.2563Z" stroke="#8160D1" stroke-width="2" stroke-linecap="round" stroke-linejoin="round"/>
<path d="M47.7371 65.5611H56.7616C58.3311 65.5611 60.2929 65.1688 61.47 63.9917L70.8869 56.929C73.2411 54.9671 76.3801 55.3595 78.7343 57.3214V57.3214C81.0886 59.6756 81.0886 63.5993 78.7343 65.5611L70.4946 73.8009C68.1403 76.1551 65.3937 77.3323 62.6471 78.117L51.2684 80.4712C48.9142 80.8636 46.5599 80.8636 44.2057 80.4712L34.0041 77.7246C32.827 77.3323 31.6499 77.3323 30.0804 77.3323H24.1948" stroke="#8160D1" stroke-width="2" stroke-linecap="round" stroke-linejoin="round"/>
<path d="M47.737 65.5615H53.6226C56.7615 65.5615 59.5081 62.8149 59.5081 59.676V58.4989C59.5081 55.7523 57.5463 53.398 55.1921 52.6133L46.1675 50.2591C44.5981 49.8667 43.0286 49.8667 41.8515 49.8667V49.8667C38.3201 49.8667 34.7888 51.0438 31.6498 53.0057L24.5872 57.7141" stroke="#8160D1" stroke-width="2" stroke-linecap="round" stroke-linejoin="round"/>
<circle cx="56.3692" cy="27.1084" r="10.9864" stroke="#8160D1" stroke-width="2" stroke-linecap="round" stroke-linejoin="round"/>
<path d="M54.0151 16.1226C53.6227 13.7684 52.4456 11.8065 50.8761 10.2371C46.56 5.92098 39.4973 5.92098 35.1813 10.2371C30.8652 14.5531 30.8652 21.6158 35.1813 25.9319C37.9279 28.6785 41.4592 29.4632 44.9905 29.0708" stroke="#8160D1" stroke-width="2" stroke-linecap="round" stroke-linejoin="round"/>
</svg>
