<svg width="89" height="88" viewBox="0 0 89 88" fill="none" xmlns="http://www.w3.org/2000/svg">
<path fill-rule="evenodd" clip-rule="evenodd" d="M48.1667 60.5002H40.8334C32.7667 60.5002 26.1667 53.9002 26.1667 45.8335V16.5002C26.1667 14.3002 27.6334 12.8335 29.8334 12.8335H59.1667C61.3667 12.8335 62.8334 14.3002 62.8334 16.5002V45.8335C62.8334 53.9002 56.2334 60.5002 48.1667 60.5002Z" stroke="#8160D1" stroke-width="2"/>
<path d="M44.5 60.5V75.1667" stroke="#8160D1" stroke-width="2"/>
<path d="M33.5 75.1668H55.5" stroke="#8160D1" stroke-width="2" stroke-linecap="round" stroke-linejoin="round"/>
<path d="M62.8333 23.8335H73.8333C76.0333 23.8335 77.5 25.3002 77.5 27.5002V34.8335C77.5 41.0668 72.7333 45.8335 66.5 45.8335H62.8333" stroke="#8160D1" stroke-width="2" stroke-linecap="round" stroke-linejoin="round"/>
<path d="M26.1667 23.8335H15.1667C12.9667 23.8335 11.5 25.3002 11.5 27.5002V34.8335C11.5 41.0668 16.2667 45.8335 22.5 45.8335H26.1667" stroke="#8160D1" stroke-width="2" stroke-linecap="round" stroke-linejoin="round"/>
</svg>
