<svg width="89" height="88" viewBox="0 0 89 88" fill="none" xmlns="http://www.w3.org/2000/svg">
<path d="M55.4762 82.5813H55.4746C42.1995 82.5805 30.2621 74.6899 25.0626 62.4787C22.2391 55.8487 21.6528 48.6546 23.3672 41.6765C24.9872 35.0823 28.6734 29.0372 33.7685 24.6027L31.3872 19.0104C31.2486 18.6854 31.4001 18.31 31.7252 18.1715L48.9834 10.8221C49.1402 10.7559 49.3153 10.7536 49.4729 10.8176C49.6297 10.8807 49.7561 11.0041 49.8223 11.1601L52.1617 16.6542C53.2511 16.5446 54.3542 16.4897 55.4466 16.4897C68.7209 16.4897 80.659 24.3795 85.8586 36.5904C92.9963 53.3514 85.1674 72.7945 68.4055 79.9332C64.2771 81.6909 59.9272 82.5824 55.4775 82.5824L55.4762 82.5813ZM32.8147 19.097L35.129 24.5325C35.2386 24.7906 35.1678 25.0906 34.9532 25.2717C24.2436 34.3172 20.7416 49.0694 26.2388 61.9787C31.238 73.7175 42.7135 81.3036 55.4757 81.3036H55.4772C59.754 81.3036 63.9349 80.4464 67.9052 78.7564C84.0176 71.8951 91.5449 53.2029 84.6829 37.0916C79.6845 25.3536 68.209 17.769 55.448 17.769C54.2444 17.769 53.0287 17.839 51.8342 17.9768C51.5533 18.0088 51.2831 17.8527 51.1727 17.5924L48.898 12.2505L32.8147 19.097Z" fill="#8160D1" stroke="#8160D1"/>
<path d="M17.3914 24.5266C16.5167 24.5266 15.5582 24.4619 14.5069 24.3158C14.1574 24.267 13.9131 23.9443 13.961 23.5941C14.0097 23.2446 14.3325 23.0003 14.6827 23.0482C23.2417 24.2358 24.9858 19.8669 25.2637 18.9061L23.6688 15.1606C23.1291 13.8931 23.1146 12.4908 23.6292 11.2126C24.1439 9.93438 25.1259 8.93337 26.3935 8.39275L31.038 6.41504C32.3056 5.8753 33.7078 5.8616 34.9861 6.37621C36.2643 6.89083 37.266 7.87289 37.8059 9.14049L40.1749 14.7039C40.3135 15.029 40.162 15.4043 39.8369 15.5428C39.5126 15.6806 39.1365 15.5299 38.998 15.2048L36.6297 9.64218C36.224 8.68907 35.4703 7.94987 34.5095 7.56313C33.5481 7.1764 32.4936 7.1863 31.5399 7.59282L26.8953 9.57053C25.9414 9.97629 25.203 10.73 24.8163 11.6907C24.4295 12.6522 24.4394 13.7066 24.846 14.6604L26.5246 18.6029C26.5741 18.7194 26.5878 18.8473 26.5649 18.9714C26.5512 19.0437 26.2125 20.7642 24.5034 22.2761C23.2679 23.3685 21.0869 24.5264 17.3916 24.5264L17.3914 24.5266Z" fill="#8160D1" stroke="#8160D1"/>
<path d="M34.2452 25.5244C33.9963 25.5244 33.7603 25.3783 33.6568 25.1354C33.5182 24.8103 33.6697 24.435 33.9948 24.2965L43.7155 20.1575C44.0406 20.0197 44.4159 20.1704 44.5545 20.4955C44.693 20.8206 44.5415 21.1959 44.2164 21.3344L34.4957 25.4734C34.4135 25.5077 34.329 25.5244 34.2452 25.5244V25.5244Z" fill="#8160D1" stroke="#8160D1"/>
<path d="M66.9725 70.9173C66.7959 70.9173 66.6201 70.8442 66.4937 70.7019C66.26 70.4377 66.2844 70.0327 66.5493 69.799C73.3025 63.8238 76.7085 57.0538 76.6705 49.675C76.6424 44.1642 74.5954 40.3524 74.5739 40.3144C74.4049 40.0046 74.5184 39.6163 74.8274 39.4465C75.1365 39.2768 75.5248 39.3902 75.6953 39.6993C75.7851 39.8637 77.903 43.7851 77.9486 49.6026C77.9904 54.9568 76.1938 62.9729 67.3964 70.7557C67.2746 70.8638 67.1232 70.9163 66.9724 70.9163L66.9725 70.9173Z" fill="#8160D1" stroke="#8160D1"/>
<path d="M7.17154 20.2738C7.1586 20.2738 7.14489 20.2731 7.13195 20.2731L3.20226 20.0325C2.84978 20.0112 2.58106 19.7074 2.60314 19.355C2.62521 19.0025 2.92821 18.7368 3.28068 18.7558L7.21037 18.9964C7.56285 19.0177 7.83158 19.3215 7.80949 19.674C7.78818 20.012 7.5065 20.2738 7.17155 20.2738L7.17154 20.2738Z" fill="#8160D1" stroke="#8160D1"/>
<path d="M1.13981 28.5822C0.890884 28.5822 0.654876 28.4361 0.551353 28.1932C0.4128 27.8681 0.564294 27.4928 0.889364 27.3543L4.12936 25.9749C4.45443 25.8371 4.82974 25.9878 4.96828 26.3129C5.10684 26.6379 4.95534 27.0133 4.63027 27.1518L1.39028 28.5312C1.30882 28.5662 1.22356 28.5822 1.13981 28.5822V28.5822Z" fill="#8160D1" stroke="#8160D1"/>
<path d="M7.11501 33.6842C6.96885 33.6842 6.82116 33.634 6.70164 33.532C6.43215 33.3036 6.40017 32.9001 6.62856 32.6306L9.17884 29.6303C9.40723 29.3616 9.8107 29.3289 10.0802 29.5573C10.3497 29.7856 10.3817 30.1891 10.1533 30.4586L7.60299 33.4589C7.47586 33.6081 7.2962 33.6842 7.11501 33.6842V33.6842Z" fill="#8160D1" stroke="#8160D1"/>
</svg>
