<svg width="212" height="74" viewBox="0 0 212 74" fill="none" xmlns="http://www.w3.org/2000/svg">
<path d="M206.606 17.965C200.445 16.0011 194.386 13.9259 188.022 12.6896C181.875 11.4953 175.622 10.873 169.368 10.7184C156.497 10.4031 143.629 12.0887 131.094 14.9134C103.33 21.1722 76.8941 32.703 51.5559 45.482C36.9306 52.8591 22.6996 60.9875 8.10695 68.4206C6.7532 69.1101 5.86636 67.0433 7.12918 66.3005C19.8425 58.8062 32.9223 51.8954 46.0684 45.2003C59.1931 38.5181 72.5188 32.2132 86.1787 26.7073C99.3616 21.3938 112.873 16.7598 126.707 13.4625C139.296 10.4637 152.192 8.59644 165.151 8.56666C177.873 8.53607 190.663 10.3683 202.626 14.8535C204.144 15.4231 205.581 16.1383 207.007 16.9071C207.635 17.242 207.317 18.1917 206.606 17.965Z" fill="#8160D1"/>
<path d="M6.64823 66.8497C7.09832 65.4203 7.45634 63.9307 7.68425 62.4485C7.8738 61.2158 7.74259 59.7034 8.36851 58.6131C8.64496 58.1306 9.41458 58.2602 9.61973 58.7336C10.1667 59.9953 9.57895 61.7543 9.19426 63.0124C8.73468 64.5118 8.07762 65.8527 7.23568 67.1677C7.02158 67.503 6.53571 67.2035 6.64823 66.8497Z" fill="#8160D1"/>
<path d="M7.99995 67.4356C9.66845 67.4138 11.4421 68.1109 12.9654 68.741C14.5942 69.4126 16.0844 70.2392 17.4466 71.3681C17.9576 71.7907 17.4179 72.5388 16.8533 72.2028C15.3954 71.3306 13.9302 70.429 12.3954 69.7017C10.9341 69.007 9.3294 68.6217 7.88974 67.9023C7.64092 67.7736 7.72605 67.4385 7.99995 67.4356Z" fill="#8160D1"/>
</svg>
