<svg width="64" height="64" viewBox="0 0 64 64" fill="none" xmlns="http://www.w3.org/2000/svg">
<path d="M23.586 29.0669V31.7969" stroke="#8160D1" stroke-width="2" stroke-linecap="round" stroke-linejoin="round"/>
<path d="M23.586 50.0674V47.5474" stroke="#8160D1" stroke-width="2" stroke-linecap="round" stroke-linejoin="round"/>
<path d="M28.8361 35.3675C28.6261 33.2674 26.9461 31.5874 24.846 31.5874H21.906C19.8059 31.5874 18.1259 33.2674 18.1259 35.3675C18.1259 37.0475 19.1759 38.5175 20.8559 38.9375L25.686 40.1976C27.3661 40.6176 28.4161 42.0876 28.4161 43.7676C28.4161 45.8677 26.736 47.5477 24.636 47.5477H21.6959C19.5959 47.5477 17.9159 45.8677 17.7059 43.7676" stroke="#8160D1" stroke-width="2" stroke-linecap="round" stroke-linejoin="round"/>
<path d="M24.335 59.9996C13.0725 59.9996 4 50.9271 4 39.6646C4 28.4021 13.0725 19.3296 24.335 19.3296C35.5975 19.3296 44.67 28.4021 44.67 39.6646C44.67 50.9271 35.5975 59.9996 24.335 59.9996" stroke="#8160D1" stroke-width="2" stroke-linecap="round" stroke-linejoin="round"/>
<path d="M20.2681 19.9552C22.1452 10.8826 30.2792 4 40.2903 4C51.5527 4 60.6253 13.0725 60.6253 24.335C60.6253 34.0332 53.7427 42.1673 44.6701 44.3572" stroke="#8160D1" stroke-width="2" stroke-linecap="round" stroke-linejoin="round"/>
</svg>
