<svg width="64" height="64" viewBox="0 0 64 64" fill="none" xmlns="http://www.w3.org/2000/svg">
<path fill-rule="evenodd" clip-rule="evenodd" d="M24.5333 41.3332H20.8C20 41.3332 19.2 40.7999 19.2 39.7332V27.9999C19.2 27.1999 20 26.3999 20.8 26.3999H24.5333C25.3333 26.3999 26.1333 27.1999 26.1333 27.9999V39.7332C26.1333 40.7999 25.3333 41.3332 24.5333 41.3332Z" stroke="#8160D1" stroke-width="2" stroke-linecap="round" stroke-linejoin="round"/>
<path d="M26.1333 38.1333L29.0666 40.5333C29.6 41.0667 30.4 41.3333 31.2 41.3333H40.8C41.8666 41.3333 42.9333 40.5333 43.4666 39.4667L45.3333 32.5333C45.6 31.4667 45.3333 30.4 44.8 29.6C44 28.5333 42.9333 28 41.8666 28H40.2666H37.6V23.4667C37.6 20 33.0666 18.9333 31.4666 21.6L26.4 29.8667" stroke="#8160D1" stroke-width="2" stroke-linecap="round" stroke-linejoin="round"/>
<path fill-rule="evenodd" clip-rule="evenodd" d="M33.6 8.79942L37.6 6.93275C39.4666 6.13275 41.6 6.66609 42.4 8.53275L44.5333 12.2661C45.0666 13.3328 46.1333 13.8661 47.2 14.1328L51.4666 14.9328C53.3333 15.1994 54.6666 17.0661 54.4 19.1994L53.8666 23.4661C53.6 24.5328 54.1333 25.5994 54.9333 26.6661L57.8666 29.8661C59.2 31.1994 59.2 33.5994 57.8666 34.9328L54.9333 38.1328C54.1333 38.9328 53.8666 39.9994 53.8666 41.3328L54.4 45.5994C54.6666 47.4661 53.3333 49.3328 51.4666 49.8661L47.2 50.6661C46.1333 50.9328 45.0666 51.4661 44.5333 52.5328L42.4 56.2661C41.6 58.1328 39.2 58.6661 37.6 57.8661L33.6 55.9994C32.5333 55.4661 31.4666 55.4661 30.4 55.9994L26.4 57.8661C24.5333 58.6661 22.4 58.1328 21.6 56.2661L19.4666 52.5328C18.9333 51.4661 17.8666 50.9328 16.8 50.6661L12.5333 49.8661C10.6666 49.5994 9.3333 47.7328 9.59997 45.5994L10.1333 41.3328C10.4 40.2661 9.86663 39.1994 9.06663 38.1328L6.1333 34.9328C4.79997 33.5994 4.79997 31.1994 6.1333 29.8661L9.06663 26.6661C9.86663 25.8661 10.1333 24.7994 10.1333 23.4661L9.59997 19.1994C9.3333 17.3328 10.6666 15.4661 12.5333 14.9328L16.8 14.1328C17.8666 13.8661 18.9333 13.3328 19.4666 12.2661L21.6 8.53275C22.4 6.66609 24.8 6.13275 26.4 6.93275L30.4 8.79942C31.4666 9.33275 32.5333 9.33275 33.6 8.79942Z" stroke="#8160D1" stroke-width="2" stroke-linecap="round" stroke-linejoin="round"/>
</svg>
