<svg width="64" height="64" viewBox="0 0 64 64" fill="none" xmlns="http://www.w3.org/2000/svg">
<path d="M34.6667 29.6001L15.7333 48.5334" stroke="#8160D1" stroke-width="2" stroke-linecap="round" stroke-linejoin="round"/>
<path d="M17.8667 34.6661L8.53334 32.5328C7.46667 32.2661 7.20001 30.9328 8.00001 30.3995L15.4667 22.9328C16 22.3995 16.5333 22.1328 17.3333 22.1328H25.6" stroke="#8160D1" stroke-width="2" stroke-linecap="round" stroke-linejoin="round"/>
<path fill-rule="evenodd" clip-rule="evenodd" d="M53.0667 23.9997L55.2 13.5997C55.7334 10.6664 53.3334 8.2664 50.4 8.79974L40 10.9331C37.0667 11.4664 34.1334 13.0664 32 15.1997L23.4667 23.7331C20.2667 26.9331 18.1334 31.1997 17.3334 35.7331V35.9997C16.8 38.9331 17.8667 41.8664 20 43.9997V43.9997C22.1334 46.1331 25.0667 46.9331 28 46.6664H28.2667C32.8 46.1331 37.0667 43.9997 40.2667 40.5331L48.8 31.9997C50.9334 29.8664 52.5334 27.1997 53.0667 23.9997Z" stroke="#8160D1" stroke-width="2" stroke-linecap="round" stroke-linejoin="round"/>
<path d="M35.7333 12.5337C41.8667 16.8004 47.2 22.1337 51.4667 28.267" stroke="#8160D1" stroke-width="2" stroke-linecap="round" stroke-linejoin="round"/>
<path d="M29.3334 46.3998L31.4667 55.7332C31.7334 56.7998 33.0667 57.0665 33.6 56.2665L41.0667 48.7998C41.6 48.2665 41.8667 47.7332 41.8667 46.9332V38.6665" stroke="#8160D1" stroke-width="2" stroke-linecap="round" stroke-linejoin="round"/>
</svg>
