<svg width="64" height="64" viewBox="0 0 64 64" fill="none" xmlns="http://www.w3.org/2000/svg">
<path fill-rule="evenodd" clip-rule="evenodd" d="M42.6667 56H21.3333C18.4 56 16 53.6 16 50.6667V13.3333C16 10.4 18.4 8 21.3333 8H42.6667C45.6 8 48 10.4 48 13.3333V50.6667C48 53.6 45.6 56 42.6667 56Z" stroke="#8160D1" stroke-width="2" stroke-linecap="round" stroke-linejoin="round"/>
<path d="M32 46.133C31.7333 46.133 31.4666 46.3996 31.4666 46.933C31.4666 47.1996 31.7333 47.4663 32.2666 47.4663C32.5333 47.4663 32.8 47.1996 32.8 46.933C32.5333 46.3996 32.2666 46.133 32 46.133" stroke="#8160D1" stroke-width="2" stroke-linecap="round" stroke-linejoin="round"/>
<path d="M28.5334 15.9998H35.2" stroke="#8160D1" stroke-width="2" stroke-linecap="round" stroke-linejoin="round"/>
</svg>
