<svg width="64" height="64" viewBox="0 0 64 64" fill="none" xmlns="http://www.w3.org/2000/svg">
<path d="M26.6666 1.28001H37.3334" stroke="#8160D1" stroke-width="2" stroke-linecap="round" stroke-linejoin="round"/>
<path d="M16.5333 15.6153C20.8 12.2873 26.1333 10.2393 32 10.2393C45.3334 10.2393 56.0002 20.4793 56.0002 33.2794C56.0002 36.8634 55.2002 40.4474 53.3335 43.5195L46.1334 40.1914" stroke="#8160D1" stroke-width="2" stroke-linecap="round" stroke-linejoin="round"/>
<path d="M47.4668 50.9447C43.2001 54.2727 37.8667 56.3207 32 56.3207C18.6666 56.3207 7.99988 46.0807 7.99988 33.2806C7.99988 29.6966 8.79988 26.1125 10.6666 23.0405L17.8666 26.3685" stroke="#8160D1" stroke-width="2" stroke-linecap="round" stroke-linejoin="round"/>
<path d="M31.9999 20.4805V23.8085" stroke="#8160D1" stroke-width="2" stroke-linecap="round" stroke-linejoin="round"/>
<path d="M31.9999 46.0798V43.0078" stroke="#8160D1" stroke-width="2" stroke-linecap="round" stroke-linejoin="round"/>
<path d="M38.6667 28.1603C38.4 25.6003 36.2667 23.5522 33.6 23.5522H29.8666C27.1999 23.5522 25.0666 25.6003 25.0666 28.1603C25.0666 30.2083 26.3999 32.0003 28.5333 32.5123L34.6667 34.0483C36.8 34.5603 38.1333 36.3523 38.1333 38.4003C38.1333 40.9604 36 43.0084 33.3333 43.0084H29.6C26.9333 43.0084 24.7999 40.9604 24.5333 38.4003" stroke="#8160D1" stroke-width="2" stroke-linecap="round" stroke-linejoin="round"/>
</svg>
