<svg width="64" height="64" viewBox="0 0 64 64" fill="none" xmlns="http://www.w3.org/2000/svg">
<path fill-rule="evenodd" clip-rule="evenodd" d="M31.7778 60C31.7778 60 10 41.9556 10 25.7778C10 13.9556 19.9556 4 31.7778 4C43.6 4 53.5556 13.9556 53.5556 25.7778C53.5556 42.5778 31.7778 60 31.7778 60Z" stroke="#8160D1" stroke-width="2" stroke-linecap="round" stroke-linejoin="round"/>
<path d="M31.0557 31.643L36.7313 34.3252C37.6772 34.9212 38.9384 34.0272 38.9384 32.8351L37.9925 26.8746L42.4068 22.7023C43.3528 21.8083 42.7221 20.6162 41.4609 20.3182L35.1547 19.4241L32.3169 14.0597C31.6863 13.1656 30.1097 13.1656 29.7944 14.0597L26.9567 19.4241L20.6505 20.3182C19.3892 20.6162 19.0739 21.8083 19.7045 22.7023L24.1189 26.8746L23.1729 32.8351C22.8576 34.0272 24.1189 34.9212 25.3801 34.3252L31.0557 31.643" stroke="#8160D1" stroke-width="2" stroke-linecap="round" stroke-linejoin="round"/>
</svg>
