<svg width="64" height="64" viewBox="0 0 64 64" fill="none" xmlns="http://www.w3.org/2000/svg">
<circle cx="30.6667" cy="28.2673" r="6.66667" stroke="#8160D1" stroke-width="2" stroke-linecap="round" stroke-linejoin="round"/>
<path d="M56 37.3336V16.2669C56 13.3336 53.6 10.9336 50.6666 10.9336H10.6666C7.73331 10.9336 5.33331 13.3336 5.33331 16.2669V40.2669C5.33331 43.2003 7.73331 45.6003 10.6666 45.6003H32.8" stroke="#8160D1" stroke-width="2" stroke-linecap="round" stroke-linejoin="round"/>
<path d="M13.3333 37.5999H18.6666" stroke="#8160D1" stroke-width="2" stroke-linecap="round" stroke-linejoin="round"/>
<path d="M42.6666 18.9339H48" stroke="#8160D1" stroke-width="2" stroke-linecap="round" stroke-linejoin="round"/>
<path d="M41.0667 40C36 40.2667 32 44.2667 32 49.3333C32 54.4 36.2667 58.6667 41.3333 58.6667C45.0667 58.6667 48.2667 56.5333 49.6 53.3333" stroke="#8160D1" stroke-width="2" stroke-linecap="round" stroke-linejoin="round"/>
<path d="M49.3333 53.0661C44.2667 53.0661 40 48.7994 40 43.7327C40 38.6661 44.2667 34.3994 49.3333 34.3994C54.4 34.3994 58.6667 38.6661 58.6667 43.7327C58.6667 48.7994 54.6667 53.0661 49.3333 53.0661" stroke="#8160D1" stroke-width="2" stroke-linecap="round" stroke-linejoin="round"/>
</svg>
